# AST/ASF file generated using VICON BodyLanguage
# -----------------------------------------------
:version 1.10
:name VICON
:units
  mass 1.0
  length 0.45
  angle deg
:documentation
   .ast/.asf automatically generated from VICON data using
   VICON BodyBuilder and BodyLanguage model FoxedUp or BRILLIANT.MOD
:root
   order TX TY TZ RX RY RZ
   axis XYZ
   position 0 0 0  
   orientation 0 0 0 
:bonedata
  begin
     id 1 
     name lhipjoint
     direction 0.588788 -0.725889 0.355548 
     length 2.37778 
     axis 0 0 0  XYZ
  end
  begin
     id 2 
     name lfemur
     direction 0.34202 -0.939693 0  
     length 6.86393  
     axis 0 0 20  XYZ
    dof rx ry rz
    limits (-160.0 20.0)
           (-70.0 70.0)
           (-60.0 70.0)
  end
  begin
     id 3 
     name ltibia
     direction 0.34202 -0.939693 0   
     length 7.32851   
     axis 0 0 20   XYZ
    dof rx
    limits (-10.0 170.0)
  end
  begin
     id 4 
     name lfoot
     direction 0.0626533 -0.172138 0.983078   
     length 1.98929   
     axis -90 7.62852e-016 20   XYZ
    dof rx rz
    limits (-45.0 90.0)
           (-70.0 20.0)
  end
  begin
     id 5 
     name ltoes
     direction 1.53647e-011 -4.21734e-011 1   
     length 1.00479   
     axis -90 7.62852e-016 20   XYZ
    dof rx
    limits (-90.0 20.0)
  end
  begin
     id 6 
     name rhipjoint
     direction -0.59141 -0.724168 0.354705   
     length 2.38343  
     axis 0 0 0  XYZ 
  end
  begin
     id 7 
     name rfemur
     direction -0.34202 -0.939693 0   
     length 6.95589   
     axis 0 0 -20   XYZ
    dof rx ry rz
    limits (-160.0 20.0)
           (-70.0 70.0)
           (-70.0 60.0)
  end
  begin
     id 8 
     name rtibia
     direction -0.34202 -0.939693 0   
     length 7.32327   
     axis 0 0 -20   XYZ
    dof rx
    limits (-10.0 170.0)
 end
 begin
     id 9 
     name rfoot
     direction -0.0660461 -0.18146 0.981178   
     length 1.85272  
     axis -90 -7.62852e-016 -20   XYZ
    dof rx rz
    limits (-45.0 90.0)
           (-20.0 70.0)
  end
  begin
     id 10 
     name rtoes
     direction -1.53586e-011 -4.21988e-011 1   
     length 0.93746   
     axis -90 -7.62852e-016 -20   XYZ
    dof rx
    limits (-90.0 20.0)
  end
  begin
     id 11 
     name lowerback
     direction -0.0107982 0.991059 0.13299   
     length 1.98691   
     axis 0 0 0   XYZ
    dof rx ry rz
    limits (-20.0 45.0)
           (-30.0 30.0)
           (-30.0 30.0)
  end
  begin
     id 12 
     name upperback
     direction 0.0076296 0.999916 0.0104576   
     length 1.99501   
     axis 0 0 0   XYZ
    dof rx ry rz
    limits (-20.0 45.0)
           (-30.0 30.0)
           (-30.0 30.0)
  end
  begin
     id 13 
     name thorax
     direction 0.01176 0.998615 -0.0512909   
     length 2.03144   
     axis 0 0 0   XYZ
    dof rx ry rz
    limits (-20.0 45.0)
           (-30.0 30.0)
           (-30.0 30.0)
  end
  begin
     id 14 
     name lowerneck
     direction -0.0171909 0.999644 0.0204011   
     length 1.71818   
     axis 0 0 0   XYZ
    dof rx ry rz
    limits (-20.0 45.0)
           (-30.0 30.0)
           (-30.0 30.0)
  end
  begin
     id 15 
     name upperneck
     direction 0.0250902 0.997482 -0.0663316   
     length 1.66199   
     axis 0 0 0   XYZ
    dof rx ry rz
    limits (-20.0 45.0)
           (-30.0 30.0)
           (-30.0 30.0)
  end
  begin
     id 16
     name head
     direction 0.00881535 0.99956 -0.0283365  
     length 1.81545  
     axis 0 0 0   XYZ
    dof rx ry rz
    limits (-20.0 45.0)
           (-30.0 30.0)
           (-30.0 30.0)
  end
  begin
     id 17 
     name lclavicle
     direction 0.840411 0.486876 -0.238035  
     length 3.30409  
     axis 0 0 0   XYZ
    dof ry rz
    limits (-20.0 10.0)
           (0.0 20.0)
  end
  begin
     id 18 
     name lhumerus
     direction 1 -4.48977e-011 -5.16239e-027   
     length 4.62672   
     axis 180 -30 -90   XYZ
    dof rx ry rz
    limits (-60.0 90.0)
           (-90.0 90.0)
           (-90.0 90.0)
  end
  begin
     id 19
     name lradius
     direction 1 -4.48977e-011 -8.71171e-027   
     length 3.11018   
     axis 180 -30 -90   XYZ
    dof rx
    limits (-10.0 170.0)
  end
  begin
     id 20
     name lwrist
     direction 1 -4.48912e-011 -1.03764e-026   
     length 1.55509   
     axis 9.09556e-015 90 90   XYZ
    dof ry
    limits (-180.0 0.0)
 end
  begin
     id 21 
     name lhand
     direction 1 -4.49072e-011 -2.07528e-026   
     length 0.743834   
     axis 1.3242e-014 90 90   XYZ
    dof rx rz
    limits (-90.0 90.0)
           (-45.0 45.0)
  end
  begin
     id 22 
     name lfingers
     direction 1 -4.48909e-011 -4.15056e-026   
     length 0.599698   
     axis 2.64841e-014 90 90   XYZ
    dof rx
    limits (0.0 90.0)
  end
  begin
     id 23
     name lthumb
     direction 0.707107 -6.35013e-011 0.707107   
     length 0.86105   
     axis -90 45 2.85299e-015   XYZ
    dof rx rz
    limits (-45.0 45.0)
           (-45.0 45.0)
  end
  begin
     id 24 
     name rclavicle
     direction -0.835208 0.500237 -0.228452   
     length 3.2716  
     axis 0 0 0   XYZ 
    dof ry rz
    limits (-10.0 20.0)
           (-20.0 0.0)
  end
  begin
     id 25 
     name rhumerus
     direction -1 -4.48978e-011 -5.1953e-028  
     length 4.55919   
     axis 180 30 90   XYZ
    dof rx ry rz
    limits (-90.0 60.0)
           (-90.0 90.0)
           (-90.0 90.0)
  end
  begin
     id 26 
     name rradius
     direction -1 -4.48961e-011 -5.99546e-027   
     length 3.22748   
     axis 180 30 90   XYZ
    dof rx
    limits (-10.0 170.0)
  end
  begin
     id 27 
     name rwrist
     direction -1 -4.48986e-011 -1.03764e-026   
     length 1.61374   
     axis 9.09556e-015 -90 -90   XYZ
    dof ry
    limits (-180.0 0.0)
  end
  begin
     id 28
     name rhand
     direction -1 -4.4899e-011 -2.07528e-026   
     length 0.700882   
     axis 1.3242e-014 -90 -90   XYZ
    dof rx rz
    limits (-90.0 90.0)
           (-45.0 45.0)
  end
  begin
     id 29
     name rfingers
     direction -1 -4.48991e-011 -4.15056e-026   
     length 0.565069   
     axis 2.64841e-014 -90 -90   XYZ
    dof rx
    limits (0.0 90.0)
  end
  begin
     id 30
     name rthumb
     direction -0.707107 -6.34804e-011 0.707107   
     length 0.811329   
     axis -90 -45 -2.85299e-015   XYZ
    dof rx rz
    limits (-45.0 45.0)
           (-45.0 45.0)
  end
:hierarchy
  begin
    root lhipjoint rhipjoint lowerback
    lhipjoint lfemur
    lfemur ltibia
    ltibia lfoot
    lfoot ltoes
    rhipjoint rfemur
    rfemur rtibia
    rtibia rfoot
    rfoot rtoes
    lowerback upperback
    upperback thorax
    thorax lowerneck lclavicle rclavicle
    lowerneck upperneck
    upperneck head
    lclavicle lhumerus
    lhumerus lradius
    lradius lwrist
    lwrist lhand lthumb
    lhand lfingers
    rclavicle rhumerus
    rhumerus rradius
    rradius rwrist
    rwrist rhand rthumb
    rhand rfingers
  end

#!OML:ASF F:\VICON\USERDATA\INSTALL\SteveWalk\SteveWalk.ASF
:FULLY-SPECIFIED
:DEGREES
353
root 0.348367 16.1913 37.2246 15.9688 5.88288 -0.785705
lowerback -15.6823 -0.411819 1.50859
upperback -5.20339 -0.878234 2.7752
thorax 3.28671 -0.419143 1.90376
lowerneck -3.98847 -0.252353 -0.719349
upperneck 7.99435 -0.0591271 -2.73954
head 3.26739 -0.154504 -0.768921
rclavicle 1.9133e-015 -3.33958e-014
rhumerus -46.1115 -37.1271 -57.136
rradius 15.8246
rwrist 22.2235
rhand -16.4196 -34.7597
rfingers 7.12502
rthumb 9.79538 -64.5119
lclavicle 1.9133e-015 -3.33958e-014
lhumerus -31.8184 7.76116 84.4211
lradius 27.605
lwrist -2.28503
lhand -20.3705 -18.0052
lfingers 7.12502
lthumb 5.98213 11.8903
rfemur -31.0287 -0.771075 25.7632
rtibia 35.6093
rfoot -20.0963 4.31603
rtoes -6.02857
lfemur -36.6434 3.21695 -18.7263
ltibia 75.3833
lfoot 1.28944 -0.310341
ltoes -7.11931
354
root 0.36313 16.2087 37.4287 15.7888 5.94002 -0.804689
lowerback -15.8657 -0.451468 1.62966
upperback -5.05219 -0.958422 2.72928
thorax 3.54336 -0.458979 1.77122
lowerneck -4.30979 -0.0526953 -0.318425
upperneck 8.55558 0.224368 -3.03141
head 3.53053 -0.0214739 -0.929744
rclavicle 1.60767e-014 -3.02153e-014
rhumerus -42.4325 -33.894 -62.0358
rradius 16.9513
rwrist 17.9071
rhand -16.9521 -34.9357
rfingers 7.12502
rthumb 9.2816 -64.7114
lclavicle 1.60767e-014 -3.02153e-014
lhumerus -32.2586 9.88933 83.2654
lradius 25.0314
lwrist -4.61129
lhand -20.2376 -18.2297
lfingers 7.12502
lthumb 6.11039 11.6622
rfemur -29.7142 -1.5316 25.8973
rtibia 35.2174
rfoot -20.7647 5.08801
rtoes -3.7702
lfemur -37.6189 3.13114 -18.9475
ltibia 74.7175
lfoot -0.156148 0.506957
ltoes -6.88214
355
root 0.364188 16.2191 37.6233 15.5842 5.6744 -0.812804
lowerback -15.6266 -0.350718 1.59936
upperback -5.06054 -0.809418 2.64204
thorax 3.40302 -0.38618 1.7245
lowerneck -4.15111 -0.178668 -0.148745
upperneck 8.71642 0.0574937 -3.17665
head 3.55436 -0.104929 -1.01559
rclavicle -2.26118e-015 1.43125e-014
rhumerus -39.6129 -30.3972 -66.2487
rradius 18.4314
rwrist 13.2998
rhand -17.5357 -35.8432
rfingers 7.12502
rthumb 8.71837 -65.6431
lclavicle -2.26118e-015 1.43125e-014
lhumerus -32.9852 12.0775 81.8299
lradius 22.6416
lwrist -7.39867
lhand -19.7302 -18.1318
lfingers 7.12502
lthumb 6.60026 11.7454
rfemur -28.5207 -1.58771 25.9182
rtibia 34.8584
rfoot -21.0934 5.53696
rtoes -1.08541
lfemur -38.578 3.33064 -19.173
ltibia 73.8199
lfoot -1.71692 1.15821
ltoes -3.51861
356
root 0.359396 16.2239 37.8256 15.5206 5.19636 -0.660744
lowerback -15.5834 -0.220254 1.29072
upperback -5.09289 -0.584489 2.53745
thorax 3.34363 -0.274847 1.83
lowerneck -3.88699 -0.236635 -0.077374
upperneck 8.78281 -0.0249252 -3.19749
head 3.52503 -0.142731 -1.03757
rclavicle 2.70844e-015 1.98785e-014
rhumerus -37.8114 -28.564 -68.3739
rradius 19.8992
rwrist 12.7763
rhand -14.3232 -36.1371
rfingers 7.12502
rthumb 11.8174 -65.7837
lclavicle 2.70844e-015 1.98785e-014
lhumerus -34.102 14.5758 80.1078
lradius 20.5443
lwrist -10.5415
lhand -19.1464 -17.707
lfingers 7.12502
lthumb 7.16387 12.1518
rfemur -27.5728 -1.34198 25.7301
rtibia 34.6072
rfoot -21.3945 5.90324
rtoes 1.70337
lfemur -39.6077 3.59759 -19.5801
ltibia 72.7111
lfoot -3.25012 1.62214
ltoes -0.09549
357
root 0.361922 16.2289 38.037 15.566 4.75929 -0.400466
lowerback -15.7986 -0.157808 0.931778
upperback -5.09877 -0.449346 2.43776
thorax 3.45132 -0.207734 1.95346
lowerneck -3.62924 -0.211841 -0.0758659
upperneck 8.83136 0.00633432 -3.19059
head 3.49257 -0.125268 -1.03305
rclavicle -6.26172e-015 3.18055e-014
rhumerus -35.785 -26.0527 -70.8373
rradius 21.0024
rwrist 9.52252
rhand -14.7344 -35.4872
rfingers 7.12502
rthumb 11.4209 -65.1561
lclavicle -6.26172e-015 3.18055e-014
lhumerus -35.3774 17.7858 77.8081
lradius 18.3372
lwrist -14.427
lhand -18.6015 -17.8468
lfingers 7.12502
lthumb 7.68981 11.9934
rfemur -26.7922 -1.52491 25.47
rtibia 34.4814
rfoot -21.8523 6.68072
rtoes 4.68375
lfemur -40.5948 3.75501 -20.1549
ltibia 71.3845
lfoot -4.38475 2.07386
ltoes -1.10053
358
root 0.371665 16.2303 38.2367 15.6059 4.42562 -0.187532
lowerback -15.9073 -0.113233 0.72522
upperback -5.03798 -0.360416 2.36774
thorax 3.57192 -0.164312 2.01377
lowerneck -3.76365 -0.221317 -0.24498
upperneck 9.0427 0.00490779 -3.09834
head 3.59151 -0.131306 -0.975797
rclavicle -9.19379e-016 1.35174e-014
rhumerus -33.7187 -23.1615 -73.2792
rradius 22.3793
rwrist 5.79512
rhand -15.621 -34.9718
rfingers 7.12502
rthumb 10.5657 -64.6862
lclavicle -9.19379e-016 1.35174e-014
lhumerus -36.7777 21.676 74.9048
lradius 16.265
lwrist -19.2436
lhand -18.0629 -18.2972
lfingers 7.12502
lthumb 8.20967 11.5233
rfemur -26.0981 -2.00345 25.2672
rtibia 34.3991
rfoot -22.3034 7.73123
rtoes 6.61996
lfemur -41.531 3.83994 -20.7082
ltibia 69.8748
lfoot -5.19794 2.64108
ltoes -2.92619
359
root 0.384136 16.2178 38.4259 15.6724 4.22139 -0.144551
lowerback -15.6992 -0.0854183 0.767261
upperback -5.17143 -0.320122 2.31159
thorax 3.31828 -0.144037 1.93683
lowerneck -3.73388 -0.221421 -0.380971
upperneck 9.2584 0.0058753 -2.94268
head 3.66029 -0.131231 -0.902183
rclavicle 1.51822e-014 2.78299e-014
rhumerus -32.3665 -19.931 -75.4021
rradius 24.3536
rwrist 2.5259
rhand -15.5536 -35.2392
rfingers 7.12502
rthumb 10.6308 -64.9503
lclavicle 1.51822e-014 2.78299e-014
lhumerus -38.9415 25.6175 71.3123
lradius 14.8299
lwrist -24.6495
lhand -17.158 -17.9536
lfingers 7.12502
lthumb 9.08291 11.8308
rfemur -25.3874 -2.69989 25.3165
rtibia 34.2872
rfoot -23.1274 7.87866
rtoes 2.90796
lfemur -42.5553 3.79535 -21.0234
ltibia 68.2405
lfoot -5.84491 3.18242
ltoes -3.53556
